<svg width="88" height="112" viewBox="0 0 88 112" fill="none" xmlns="http://www.w3.org/2000/svg">
<g clip-path="url(#clip0_77_12844)">
<rect x="1.69995" y="1" width="85" height="110" rx="16" fill="#FF501C" stroke="#FF501C" stroke-width="2"/>
<path d="M69.6108 56.1077C69.6108 54.1433 68.0147 52.5538 66.0422 52.5538H62.4736V49C62.4736 40.4196 56.3354 33.2415 48.1992 31.5904V27.6769C48.1992 25.7126 46.6031 24.123 44.6306 24.123C42.6581 24.123 41.062 25.7126 41.062 27.6769V31.5904C32.9258 33.2415 26.7876 40.4196 26.7876 49V52.5538H23.219C21.2465 52.5538 19.6504 54.1433 19.6504 56.1077C19.6504 58.072 21.2465 59.6615 23.219 59.6615H66.0422C68.0147 59.6615 69.6108 58.072 69.6108 56.1077ZM58.905 73.8769H30.3562C28.3837 73.8769 26.7876 75.4664 26.7876 77.4307C26.7876 79.3951 28.3837 80.9846 30.3562 80.9846H58.905C60.8775 80.9846 62.4736 79.3951 62.4736 77.4307C62.4736 75.4664 60.8775 73.8769 58.905 73.8769Z" fill="white"/>
</g>
<defs>
<clipPath id="clip0_77_12844">
<rect width="87" height="112" fill="white" transform="translate(0.699951)"/>
</clipPath>
</defs>
</svg>
