<svg width="73" height="112" viewBox="0 0 73 112" fill="none" xmlns="http://www.w3.org/2000/svg">
<path d="M2.71735 110.826L2.71347 110.825C1.86375 110.473 1.30615 109.64 1.30615 108.717V3.28125C1.30615 2.01988 2.32603 1 3.5874 1H69.2124C70.4737 1 71.4937 2.01982 71.4939 3.28125C71.4939 3.28129 71.4939 3.28133 71.4939 3.28137V108.718C71.4939 109.64 70.9363 110.473 70.0866 110.825L70.0811 110.827C69.2593 111.173 68.2643 110.995 67.5997 110.33C64.8661 107.597 60.4339 107.597 57.7004 110.33C56.8092 111.222 55.3658 111.222 54.4747 110.33C51.7411 107.597 47.3089 107.597 44.5754 110.33C43.6842 111.222 42.2408 111.222 41.3497 110.33C38.6161 107.597 34.1839 107.597 31.4504 110.33C30.5592 111.222 29.1158 111.222 28.2247 110.33C25.4911 107.597 21.0589 107.597 18.3254 110.33C17.4342 111.222 15.9908 111.222 15.0997 110.33C12.3662 107.597 7.93396 107.597 5.20036 110.33C4.54374 110.987 3.55878 111.178 2.71735 110.826Z" fill="#FF501C" stroke="#FF501C" stroke-width="2"/>
<path d="M39.5565 22.7821V22.8703L39.6395 22.8999C43.4037 24.2421 46.119 27.8048 46.119 32.0215C46.119 33.7661 44.7073 35.1777 42.9627 35.1777C41.2181 35.1777 39.8065 33.7661 39.8065 32.0215C39.8065 30.142 38.2765 28.6152 36.4002 28.6152C34.5239 28.6152 32.994 30.142 32.994 32.0215C32.994 33.901 34.5239 35.4277 36.4002 35.4277C41.7594 35.4277 46.119 39.7875 46.119 45.1465C46.119 49.3632 43.4037 52.9261 39.6395 54.2681L39.5565 54.2977V54.3858V58.2715C39.5565 60.0161 38.1448 61.4277 36.4002 61.4277C34.6556 61.4277 33.244 60.0161 33.244 58.2715V54.3858V54.2977L33.1609 54.2681C29.3967 52.9258 26.6815 49.3632 26.6815 45.1465C26.6815 43.4019 28.0931 41.9902 29.8377 41.9902C31.5823 41.9902 32.994 43.4019 32.994 45.1465C32.994 47.026 34.5239 48.5527 36.4002 48.5527C38.2765 48.5527 39.8065 47.026 39.8065 45.1465C39.8065 43.267 38.2765 41.7402 36.4002 41.7402C31.0412 41.7402 26.6815 37.3805 26.6815 32.0215C26.6815 27.8048 29.3967 24.2421 33.1609 22.8999L33.244 22.8703V22.7821V18.8965C33.244 17.1519 34.6556 15.7402 36.4002 15.7402C38.1448 15.7402 39.5565 17.1519 39.5565 18.8965V22.7821ZM13.5565 71.3965C13.5565 69.6519 14.9681 68.2402 16.7127 68.2402H36.4002C38.1448 68.2402 39.5565 69.6519 39.5565 71.3965C39.5565 73.1411 38.1448 74.5527 36.4002 74.5527H16.7127C14.9681 74.5527 13.5565 73.1411 13.5565 71.3965ZM13.5565 84.5215C13.5565 82.7769 14.9681 81.3652 16.7127 81.3652H36.4002C38.1448 81.3652 39.5565 82.7769 39.5565 84.5215C39.5565 86.2661 38.1448 87.6777 36.4002 87.6777H16.7127C14.9681 87.6777 13.5565 86.2661 13.5565 84.5215ZM56.0877 74.5527H49.5252C47.7806 74.5527 46.369 73.1411 46.369 71.3965C46.369 69.6519 47.7806 68.2402 49.5252 68.2402H56.0877C57.8323 68.2402 59.244 69.6519 59.244 71.3965C59.244 73.1411 57.8323 74.5527 56.0877 74.5527ZM49.5252 81.3652H56.0877C57.8323 81.3652 59.244 82.7769 59.244 84.5215C59.244 86.2661 57.8323 87.6777 56.0877 87.6777H49.5252C47.7806 87.6777 46.369 86.2661 46.369 84.5215C46.369 82.7769 47.7806 81.3652 49.5252 81.3652Z" fill="white" stroke="#FF501C" stroke-width="0.25"/>
</svg>
