<svg width="113" height="112" viewBox="0 0 113 112" fill="none" xmlns="http://www.w3.org/2000/svg">
<path d="M1.09998 56C1.09998 25.7742 25.8741 1 56.1 1C86.3254 1 111.1 25.7742 111.1 56C111.1 70.9858 104.838 84.5822 95.0621 94.5033L56.1 107.663L17.1378 94.5033C7.36197 84.5821 1.09998 70.9857 1.09998 56ZM32.1312 56C32.1312 69.2179 42.8821 79.9688 56.1 79.9688C69.3179 79.9688 80.0687 69.2179 80.0687 56C80.0687 42.7821 69.3179 32.0312 56.1 32.0312C42.8821 32.0312 32.1312 42.7821 32.1312 56Z" fill="#FF501C" stroke="#FF501C" stroke-width="2"/>
<path d="M1.09998 56C1.09998 25.7742 25.8741 1 56.1 1C86.3254 1 111.1 25.7742 111.1 56C111.1 70.9858 104.838 84.5822 95.0621 94.5033L56.1 107.663L17.1378 94.5033C7.36197 84.5821 1.09998 70.9857 1.09998 56ZM32.1312 56C32.1312 69.2179 42.8821 79.9688 56.1 79.9688C69.3179 79.9688 80.0687 69.2179 80.0687 56C80.0687 42.7821 69.3179 32.0312 56.1 32.0312C42.8821 32.0312 32.1312 42.7821 32.1312 56Z" fill="#FF501C" stroke="#FF501C" stroke-width="2"/>
<path d="M56.1 95.3749C46.2562 95.3749 46.2563 88.8124 36.4125 88.8124C26.5688 88.8124 26.5688 95.4406 16.5935 95.3749C26.7 105.481 40.6781 112 56.1 112C71.5219 112 85.4998 105.481 95.6065 95.3749C85.6312 95.4406 85.6969 88.8124 75.7875 88.8124C65.9437 88.8124 65.9437 95.3749 56.1 95.3749ZM25.6073 66.8051C24.3257 65.5234 22.2491 65.5234 20.9674 66.8051C19.6858 68.0867 19.6858 70.1633 20.9674 71.445L27.5299 78.0075C28.8118 79.2891 30.8882 79.2891 32.1698 78.0075C33.4515 76.7258 33.4515 74.6492 32.1698 73.3676L25.6073 66.8051ZM56.1 26.4687H69.225C71.0387 26.4687 72.5062 25.0011 72.5062 23.1874C72.5062 21.3738 71.0387 19.9062 69.225 19.9062H56.1C54.2863 19.9062 52.8187 21.3738 52.8187 23.1874C52.8187 25.0011 54.2863 26.4687 56.1 26.4687ZM84.6698 78.0073L91.2323 71.4448C92.514 70.1631 92.514 68.0865 91.2323 66.8049C89.9507 65.5232 87.8741 65.5232 86.5924 66.8049L80.0299 73.3674C78.7483 74.649 78.7483 76.7256 80.0299 78.0073C81.3118 79.2891 83.3882 79.2891 84.6698 78.0073ZM86.5927 45.1948C87.8745 46.4764 89.9509 46.4764 91.2326 45.1948C92.5142 43.9131 92.5142 41.8365 91.2326 40.5549L84.6701 33.9924C83.3884 32.7107 81.3118 32.7107 80.0302 33.9924C78.7485 35.274 78.7485 37.3506 80.0302 38.6323L86.5927 45.1948ZM25.6073 45.1948L32.1698 38.6323C33.4515 37.3506 33.4515 35.274 32.1698 33.9924C30.8882 32.7107 28.8116 32.7107 27.5299 33.9924L20.9674 40.5549C19.6858 41.8365 19.6858 43.9131 20.9674 45.1948C22.2493 46.4767 24.3257 46.4767 25.6073 45.1948ZM42.9752 26.3125C44.7873 26.3125 46.2565 24.8434 46.2565 23.0312C46.2565 21.2191 44.7873 19.75 42.9752 19.75C41.1631 19.75 39.694 21.2191 39.694 23.0312C39.694 24.8434 41.1629 26.3125 42.9752 26.3125ZM20.0065 55.8437C20.0065 54.0316 18.5373 52.5625 16.7252 52.5625C14.9131 52.5625 13.444 54.0316 13.444 55.8437C13.444 57.6559 14.9131 59.125 16.7252 59.125C18.5373 59.125 20.0065 57.6559 20.0065 55.8437ZM95.4752 52.5625C93.6631 52.5625 92.194 54.0316 92.194 55.8437C92.194 57.6559 93.6631 59.125 95.4752 59.125C97.2873 59.125 98.7565 57.6559 98.7565 55.8437C98.7565 54.0316 97.2873 52.5625 95.4752 52.5625Z" fill="#FFF9F8"/>
</svg>
