<svg width="20" height="20" viewBox="0 0 20 20" fill="none" xmlns="http://www.w3.org/2000/svg">
<path d="M2.49995 6.88625V6.875C2.49994 5.76382 2.82902 4.67753 3.4457 3.75318C4.06238 2.82883 4.93901 2.10783 5.965 1.68115C6.99099 1.25447 8.12037 1.14122 9.21065 1.35569C10.3009 1.57016 11.3033 2.10275 12.0912 2.88625C12.7111 2.58026 13.4036 2.45161 14.0921 2.51451C14.7806 2.5774 15.4383 2.8294 15.9925 3.24265C16.5467 3.65591 16.9759 4.21433 17.2327 4.85623C17.4895 5.49813 17.5638 6.19851 17.4475 6.88C17.6185 6.89587 17.7844 6.94683 17.9349 7.02969C18.0854 7.11256 18.2172 7.22554 18.322 7.3616C18.4269 7.49766 18.5026 7.65388 18.5444 7.82049C18.5862 7.98711 18.5932 8.16055 18.565 8.33C18 11.7287 16.6025 13.88 14.375 14.785V15.625C14.375 16.1223 14.1774 16.5992 13.8258 16.9508C13.4741 17.3025 12.9972 17.5 12.5 17.5H7.49995C7.00267 17.5 6.52576 17.3025 6.17413 16.9508C5.82249 16.5992 5.62495 16.1223 5.62495 15.625V14.785C3.39745 13.88 1.99995 11.7287 1.43495 8.33C1.40768 8.16505 1.41378 7.99632 1.45288 7.83377C1.49198 7.67122 1.56329 7.51817 1.66259 7.38367C1.76189 7.24917 1.88717 7.13596 2.031 7.05074C2.17483 6.96551 2.33429 6.91 2.49995 6.8875V6.88625ZM3.74995 6.875H4.99995C4.99995 6.0462 5.32919 5.25134 5.91524 4.66529C6.50129 4.07924 7.29615 3.75 8.12495 3.75C8.95375 3.75 9.74861 4.07924 10.3347 4.66529C10.9207 5.25134 11.25 6.0462 11.25 6.875H12.5C12.5 5.71468 12.039 4.60188 11.2185 3.78141C10.3981 2.96094 9.28527 2.5 8.12495 2.5C6.96463 2.5 5.85183 2.96094 5.03136 3.78141C4.21089 4.60188 3.74995 5.71468 3.74995 6.875ZM6.24995 6.875H9.99995C9.99995 6.37772 9.80241 5.9008 9.45078 5.54917C9.09915 5.19754 8.62223 5 8.12495 5C7.62767 5 7.15076 5.19754 6.79913 5.54917C6.44749 5.9008 6.24995 6.37772 6.24995 6.875ZM14.8325 6.875H16.1712C16.2656 6.50559 16.2744 6.11951 16.1969 5.74619C16.1195 5.37286 15.9578 5.02214 15.7243 4.72075C15.4908 4.41935 15.1916 4.17524 14.8494 4.00702C14.5073 3.83879 14.1312 3.75088 13.75 3.75C13.45 3.75 13.165 3.8025 12.9 3.89875C13.1212 4.25375 13.3037 4.63625 13.4437 5.0375C13.6818 4.97845 13.932 4.99061 14.1632 5.07247C14.3944 5.15433 14.5965 5.30228 14.7444 5.49797C14.8923 5.69366 14.9795 5.92848 14.9952 6.17327C15.0108 6.41807 14.9542 6.66207 14.8325 6.875ZM13.125 15H6.87495V15.625C6.87495 15.7908 6.9408 15.9497 7.05801 16.0669C7.17522 16.1842 7.33419 16.25 7.49995 16.25H12.5C12.6657 16.25 12.8247 16.1842 12.9419 16.0669C13.0591 15.9497 13.125 15.7908 13.125 15.625V15ZM6.43495 13.75H13.565C15.5475 13.1125 16.8025 11.31 17.3325 8.125H2.66745C3.19745 11.31 4.45245 13.1125 6.43495 13.75Z" fill="#3B3533"/>
</svg>
