<svg width="32" height="32" viewBox="0 0 32 32" fill="none" xmlns="http://www.w3.org/2000/svg">
<rect x="0.5" y="0.5" width="31" height="31" rx="15.5" stroke="#E2DDD8"/>
<path d="M24.3084 21.2748C24.3084 21.5748 24.2417 21.8832 24.1 22.1832C23.9584 22.4832 23.775 22.7665 23.5334 23.0332C23.125 23.4832 22.675 23.8082 22.1667 24.0165C21.6667 24.2248 21.125 24.3332 20.5417 24.3332C19.6917 24.3332 18.7834 24.1332 17.825 23.7248C16.8667 23.3165 15.9084 22.7665 14.9584 22.0748C14 21.3748 13.0917 20.5998 12.225 19.7415C11.3667 18.8748 10.5917 17.9665 9.90002 17.0165C9.21669 16.0665 8.66669 15.1165 8.26669 14.1748C7.86669 13.2248 7.66669 12.3165 7.66669 11.4498C7.66669 10.8832 7.76669 10.3415 7.96669 9.8415C8.16669 9.33317 8.48335 8.8665 8.92502 8.44984C9.45835 7.92484 10.0417 7.6665 10.6584 7.6665C10.8917 7.6665 11.125 7.7165 11.3334 7.8165C11.55 7.9165 11.7417 8.0665 11.8917 8.28317L13.825 11.0082C13.975 11.2165 14.0834 11.4082 14.1584 11.5915C14.2334 11.7665 14.275 11.9415 14.275 12.0998C14.275 12.2998 14.2167 12.4998 14.1 12.6915C13.9917 12.8832 13.8334 13.0832 13.6334 13.2832L13 13.9415C12.9084 14.0332 12.8667 14.1415 12.8667 14.2748C12.8667 14.3415 12.875 14.3998 12.8917 14.4665C12.9167 14.5332 12.9417 14.5832 12.9584 14.6332C13.1084 14.9082 13.3667 15.2665 13.7334 15.6998C14.1084 16.1332 14.5084 16.5748 14.9417 17.0165C15.3917 17.4582 15.825 17.8665 16.2667 18.2415C16.7 18.6082 17.0584 18.8582 17.3417 19.0082C17.3834 19.0248 17.4334 19.0498 17.4917 19.0748C17.5584 19.0998 17.625 19.1082 17.7 19.1082C17.8417 19.1082 17.95 19.0582 18.0417 18.9665L18.675 18.3415C18.8834 18.1332 19.0834 17.9748 19.275 17.8748C19.4667 17.7582 19.6584 17.6998 19.8667 17.6998C20.025 17.6998 20.1917 17.7332 20.375 17.8082C20.5584 17.8832 20.75 17.9915 20.9584 18.1332L23.7167 20.0915C23.9334 20.2415 24.0834 20.4165 24.175 20.6248C24.2584 20.8332 24.3084 21.0415 24.3084 21.2748Z" stroke="#FAFAFA" stroke-width="1.5" stroke-miterlimit="10"/>
</svg>
